<svg height="480pt" viewBox="0 0 480.04983 480" width="480pt" xmlns="http://www.w3.org/2000/svg" xmlns:xlink="http://www.w3.org/1999/xlink"><linearGradient id="a" gradientUnits="userSpaceOnUse" x1="16.448915" x2="463.600915" y1="463.60764" y2="16.45564"><stop offset="0" stop-color="#41dfd0"/><stop offset="1" stop-color="#ee83ef"/></linearGradient><path d="m240.023438 160.03125c-44.179688 0-80 35.816406-80 80s35.820312 80 80 80c44.183593 0 80-35.816406 80-80-.046876-44.164062-35.835938-79.949219-80-80zm-31.933594 135.375c.335937-12.984375 10.945312-23.34375 23.933594-23.375h16c12.992187.03125 23.601562 10.390625 23.9375 23.375-19.738282 11.5-44.132813 11.5-63.871094 0zm31.933594-39.375c-13.253907 0-24-10.746094-24-24s10.746093-24 24-24c13.257812 0 24 10.746094 24 24s-10.742188 24-24 24zm46.058593 28.328125c-3.039062-9.878906-9.792969-18.195313-18.839843-23.199219 12.0625-11.1875 16.042968-28.621094 10.035156-43.9375-6.007813-15.316406-20.785156-25.390625-37.238282-25.390625-16.449218 0-31.226562 10.074219-37.234374 25.390625-6.007813 15.316406-2.027344 32.75 10.035156 43.9375-9.046875 5.003906-15.800782 13.320313-18.839844 23.199219-24.335938-25.222656-23.859375-65.328125 1.074219-89.960937 24.929687-24.636719 65.035156-24.636719 89.96875 0 24.929687 24.632812 25.40625 64.738281 1.070312 89.960937zm137.941407-284.328125c-22.511719-.02734375-42.84375 13.441406-51.597657 34.183594-8.757812 20.738281-4.226562 44.703125 11.496094 60.816406-9.628906 32.613281-33.304687 59.230469-64.578125 72.59375l-2.472656 1.054688 6.304687 14.703124 2.472657-1.054687c33.699218-14.429687 59.722656-42.4375 71.640624-77.105469 20.53125 11.167969 45.839844 8.414063 63.484376-6.914062 17.644531-15.324219 23.914062-40 15.730468-61.890625-8.1875-21.890625-29.105468-36.3984378-52.480468-36.386719zm-8 56c0-4.417969 3.582031-8 8-8 4.417968 0 8 3.582031 8 8s-3.582032 8-8 8c-4.417969 0-8-3.582031-8-8zm-7.671876 36.800781c1.53125-7.4375 8.078126-12.777343 15.671876-12.777343s14.144531 5.339843 15.671874 12.777343c-10.007812 4.289063-21.335937 4.289063-31.34375 0zm44.90625-9.679687c-2.25-5.027344-5.757812-9.390625-10.183593-12.664063 3.195312-4.144531 4.9375-9.222656 4.949219-14.457031 0-13.253906-10.742188-24-24-24-13.253907 0-24 10.746094-24 24 .027343 5.214844 1.769531 10.273438 4.953124 14.398438-4.425781 3.277343-7.933593 7.636718-10.183593 12.664062-14.835938-15.882812-14.273438-40.710938 1.269531-55.90625 15.546875-15.195312 40.378906-15.195312 55.921875 0 15.546875 15.195312 16.109375 40.023438 1.273437 55.90625zm-29.234374 284.878906c-9.339844-.007812-18.535157 2.332031-26.734376 6.808594-11.921874-34.671875-37.957031-62.679688-71.664062-77.105469l-2.472656-1.054687-6.304688 14.703124 2.472656 1.058594c31.273438 13.359375 54.949219 39.976563 64.578126 72.589844-18.527344 19.105469-21.03125 48.617188-5.988282 70.566406 15.042969 21.953125 43.46875 30.269532 67.972656 19.890625 24.503907-10.382812 38.304688-36.585937 33-62.664062-5.304687-26.078125-28.246093-44.808594-54.859374-44.792969zm-8 56c0-4.417969 3.582031-8 8-8 4.417968 0 8 3.582031 8 8s-3.582032 8-8 8c-4.417969 0-8-3.582031-8-8zm-7.671876 36.800781c1.570313-7.394531 8.097657-12.679687 15.652344-12.679687 7.558594 0 14.085938 5.285156 15.652344 12.679687-9.996094 4.273438-21.304688 4.273438-31.304688 0zm44.90625-9.679687c-2.234374-5.050782-5.742187-9.4375-10.183593-12.722656 3.1875-4.125 4.925781-9.183594 4.949219-14.398438 0-13.253906-10.742188-24-24-24-13.253907 0-24 10.746094-24 24 .027343 5.214844 1.769531 10.273438 4.953124 14.398438-4.425781 3.277343-7.933593 7.636718-10.183593 12.664062-14.835938-15.882812-14.273438-40.710938 1.269531-55.90625 15.546875-15.195312 40.378906-15.195312 55.921875 0 15.546875 15.195312 16.109375 40.023438 1.273437 55.90625zm-397.234374-339.121094c9.34375.007812 18.539062-2.332031 26.738281-6.808594 11.921875 34.671875 37.957031 62.679688 71.664062 77.105469l2.472657 1.054687 6.300781-14.703124-2.46875-1.054688c-31.273438-13.363281-54.949219-39.980469-64.578125-72.59375 18.527344-19.105469 21.027344-48.617188 5.984375-70.566406-15.042969-21.953125-43.464844-30.269532-67.96875-19.890625-24.503907 10.382812-38.304688 36.585937-33 62.664062 5.304687 26.078125 28.246093 44.808594 54.855469 44.792969zm-8-56c0-4.417969 3.582031-8 8-8 4.417968 0 8 3.582031 8 8s-3.582032 8-8 8c-4.417969 0-8-3.582031-8-8zm-7.671876 36.800781c1.53125-7.4375 8.078126-12.777343 15.671876-12.777343s14.144531 5.339843 15.671874 12.777343c-10.007812 4.289063-21.335937 4.289063-31.34375 0zm15.671876-76.800781c15.910156-.058594 30.332031 9.351562 36.6875 23.9375 6.351562 14.585938 3.421874 31.554688-7.453126 43.167969-2.25-5.027344-5.757812-9.390625-10.183593-12.664063 3.191406-4.140625 4.933593-9.214844 4.949219-14.441406 0-13.253906-10.742188-24-24-24-13.253907 0-24 10.746094-24 24 .027343 5.214844 1.769531 10.273438 4.953124 14.398438-4.425781 3.277343-7.933593 7.636718-10.183593 12.664062-10.851563-11.613281-13.761719-28.5625-7.410157-43.132812 6.347657-14.570313 20.75-23.972657 36.640626-23.929688zm223.839843 27.503906c1.941407-22.007812-14.328125-41.417968-36.335937-43.355468-22.007813-1.9375-41.417969 14.335937-43.355469 36.34375-1.933594 22.007812 14.339844 41.414062 36.347656 43.347656 1.195313.105468 2.402344.152344 3.578125.152344 20.695313-.039063 37.945313-15.863282 39.765625-36.480469zm-15.933593-1.398437c-1.164063 13.199219-12.808594 22.957031-26.007813 21.800781-12.78125-1.148438-22.398437-12.140625-21.832031-24.960938.5625-12.816406 11.105468-22.921874 23.933594-22.945312.707031 0 1.425781 0 2.144531.097656 13.203125 1.164063 22.960937 12.804688 21.800781 26.007813zm-207.90625 437.894531c22.511718.027344 42.847656-13.441406 51.601562-34.179688 8.757812-20.742187 4.226562-44.707031-11.496094-60.820312 9.625-32.613281 33.304688-59.230469 64.574219-72.589844l2.472656-1.058594-6.304687-14.703124-2.46875 1.054687c-33.699219 14.429687-59.722656 42.4375-71.640625 77.105469-20.53125-11.167969-45.839844-8.414063-63.484375 6.914062-17.644532 15.324219-23.917969 40-15.730469 61.890625s29.105469 36.398438 52.476563 36.386719zm-8-56c0-4.417969 3.582031-8 8-8 4.417968 0 8 3.582031 8 8s-3.582032 8-8 8c-4.417969 0-8-3.582031-8-8zm-7.671876 36.800781c1.53125-7.4375 8.078126-12.777343 15.671876-12.777343s14.144531 5.339843 15.671874 12.777343c-10.007812 4.289063-21.335937 4.289063-31.34375 0zm15.671876-76.800781c15.910156-.058594 30.332031 9.351562 36.6875 23.9375 6.351562 14.585938 3.421874 31.554688-7.453126 43.167969-2.25-5.027344-5.757812-9.390625-10.183593-12.664063 3.191406-4.140625 4.933593-9.214844 4.949219-14.441406 0-13.253906-10.742188-24-24-24-13.253907 0-24 10.746094-24 24 .027343 5.214844 1.769531 10.273438 4.953124 14.398438-4.425781 3.277343-7.933593 7.636718-10.183593 12.664062-10.851563-11.613281-13.761719-28.5625-7.410157-43.132812 6.347657-14.570313 20.75-23.972657 36.640626-23.929688zm72-136v-16h16v16zm-32 0v-16h16v16zm288-16v16h-16v-16zm-32 0v16h-16v-16zm-120-104h16v16h-16zm16-16h-16v-16h16zm-16 256h16v16h-16zm16-16h-16v-16h16zm-47.839844 91.503906c1.816406 20.625 19.066406 36.457032 39.769531 36.496094 1.183594 0 2.398437-.046875 3.574219-.160156 22.011718-1.933594 38.285156-21.339844 36.347656-43.347656-1.933594-22.007813-21.34375-38.28125-43.351562-36.34375-22.007813 1.9375-38.277344 21.347656-36.339844 43.355468zm37.738281-27.414062c.71875-.066406 1.4375-.089844 2.144531-.089844 12.417969.023438 22.769532 9.515625 23.863282 21.886719 1.160156 13.207031-8.605469 24.851562-21.808594 26.007812-13.203125 1.160157-24.847656-8.601562-26.007813-21.804687-1.160156-13.207032 8.605469-24.851563 21.808594-26.007813zm-197.898437-136.089844c22.09375 0 40-17.910156 40-40s-17.90625-40-40-40c-22.089844 0-40.0000005 17.910156-40.0000005 40 .0273437 22.082031 17.9218745 39.972656 40.0000005 40zm0-64c13.257812 0 24 10.746094 24 24s-10.742188 24-24 24c-13.253907 0-24-10.746094-24-24s10.746093-24 24-24zm400-16c-22.089844 0-40 17.910156-40 40s17.910156 40 40 40c22.09375 0 40-17.910156 40-40-.023438-22.078125-17.917969-39.972656-40-40zm0 64c-13.253907 0-24-10.746094-24-24s10.746093-24 24-24c13.257812 0 24 10.746094 24 24s-10.742188 24-24 24zm0 0" fill="url(#a)"/></svg>